<svg id="visual" viewBox="0 0 930 300" width="930" height="300" xmlns="http://www.w3.org/2000/svg" xmlns:xlink="http://www.w3.org/1999/xlink" version="1.1"><rect x="0" y="0" width="930" height="300" fill="#eff0f0"></rect><path d="M0 94L13 94.2C26 94.3 52 94.7 77.8 97.7C103.7 100.7 129.3 106.3 155.2 105.5C181 104.7 207 97.3 232.8 96.7C258.7 96 284.3 102 310.2 100C336 98 362 88 387.8 84.3C413.7 80.7 439.3 83.3 465.2 87C491 90.7 517 95.3 542.8 101.3C568.7 107.3 594.3 114.7 620.2 115.7C646 116.7 672 111.3 697.8 108.3C723.7 105.3 749.3 104.7 775.2 108.7C801 112.7 827 121.3 852.8 119.7C878.7 118 904.3 106 917.2 100L930 94L930 0L917.2 0C904.3 0 878.7 0 852.8 0C827 0 801 0 775.2 0C749.3 0 723.7 0 697.8 0C672 0 646 0 620.2 0C594.3 0 568.7 0 542.8 0C517 0 491 0 465.2 0C439.3 0 413.7 0 387.8 0C362 0 336 0 310.2 0C284.3 0 258.7 0 232.8 0C207 0 181 0 155.2 0C129.3 0 103.7 0 77.8 0C52 0 26 0 13 0L0 0Z" fill="#eff0f0"></path><path d="M0 115L13 108C26 101 52 87 77.8 81.5C103.7 76 129.3 79 155.2 84.5C181 90 207 98 232.8 97.7C258.7 97.3 284.3 88.7 310.2 87.8C336 87 362 94 387.8 99.8C413.7 105.7 439.3 110.3 465.2 105.7C491 101 517 87 542.8 88.7C568.7 90.3 594.3 107.7 620.2 111.5C646 115.3 672 105.7 697.8 105.8C723.7 106 749.3 116 775.2 118.8C801 121.7 827 117.3 852.8 108C878.7 98.7 904.3 84.3 917.2 77.2L930 70L930 0L917.2 0C904.3 0 878.7 0 852.8 0C827 0 801 0 775.2 0C749.3 0 723.7 0 697.8 0C672 0 646 0 620.2 0C594.3 0 568.7 0 542.8 0C517 0 491 0 465.2 0C439.3 0 413.7 0 387.8 0C362 0 336 0 310.2 0C284.3 0 258.7 0 232.8 0C207 0 181 0 155.2 0C129.3 0 103.7 0 77.8 0C52 0 26 0 13 0L0 0Z" fill="#cccccc"></path><path d="M0 90L13 86.3C26 82.7 52 75.3 77.8 69.8C103.7 64.3 129.3 60.7 155.2 62.3C181 64 207 71 232.8 72.5C258.7 74 284.3 70 310.2 67.7C336 65.3 362 64.7 387.8 67C413.7 69.3 439.3 74.7 465.2 82.5C491 90.3 517 100.7 542.8 99.5C568.7 98.3 594.3 85.7 620.2 80.7C646 75.7 672 78.3 697.8 76.7C723.7 75 749.3 69 775.2 68.3C801 67.7 827 72.3 852.8 74.8C878.7 77.3 904.3 77.7 917.2 77.8L930 78L930 0L917.2 0C904.3 0 878.7 0 852.8 0C827 0 801 0 775.2 0C749.3 0 723.7 0 697.8 0C672 0 646 0 620.2 0C594.3 0 568.7 0 542.8 0C517 0 491 0 465.2 0C439.3 0 413.7 0 387.8 0C362 0 336 0 310.2 0C284.3 0 258.7 0 232.8 0C207 0 181 0 155.2 0C129.3 0 103.7 0 77.8 0C52 0 26 0 13 0L0 0Z" fill="#a9aaaa"></path><path d="M0 63L13 65.8C26 68.7 52 74.3 77.8 74.7C103.7 75 129.3 70 155.2 69.2C181 68.3 207 71.7 232.8 73.3C258.7 75 284.3 75 310.2 73.8C336 72.7 362 70.3 387.8 66.3C413.7 62.3 439.3 56.7 465.2 58.2C491 59.7 517 68.3 542.8 70.8C568.7 73.3 594.3 69.7 620.2 69.7C646 69.7 672 73.3 697.8 76C723.7 78.7 749.3 80.3 775.2 82.7C801 85 827 88 852.8 84.7C878.7 81.3 904.3 71.7 917.2 66.8L930 62L930 0L917.2 0C904.3 0 878.7 0 852.8 0C827 0 801 0 775.2 0C749.3 0 723.7 0 697.8 0C672 0 646 0 620.2 0C594.3 0 568.7 0 542.8 0C517 0 491 0 465.2 0C439.3 0 413.7 0 387.8 0C362 0 336 0 310.2 0C284.3 0 258.7 0 232.8 0C207 0 181 0 155.2 0C129.3 0 103.7 0 77.8 0C52 0 26 0 13 0L0 0Z" fill="#888888"></path><path d="M0 38L13 43.5C26 49 52 60 77.8 60C103.7 60 129.3 49 155.2 50C181 51 207 64 232.8 66.5C258.7 69 284.3 61 310.2 58.7C336 56.3 362 59.7 387.8 57.5C413.7 55.3 439.3 47.7 465.2 47.8C491 48 517 56 542.8 57.2C568.7 58.3 594.3 52.7 620.2 52.5C646 52.3 672 57.7 697.8 57.2C723.7 56.7 749.3 50.3 775.2 47.5C801 44.7 827 45.3 852.8 51C878.7 56.7 904.3 67.3 917.2 72.7L930 78L930 0L917.2 0C904.3 0 878.7 0 852.8 0C827 0 801 0 775.2 0C749.3 0 723.7 0 697.8 0C672 0 646 0 620.2 0C594.3 0 568.7 0 542.8 0C517 0 491 0 465.2 0C439.3 0 413.7 0 387.8 0C362 0 336 0 310.2 0C284.3 0 258.7 0 232.8 0C207 0 181 0 155.2 0C129.3 0 103.7 0 77.8 0C52 0 26 0 13 0L0 0Z" fill="#686868"></path><path d="M0 40L13 41.2C26 42.3 52 44.7 77.8 46.7C103.7 48.7 129.3 50.3 155.2 52.5C181 54.7 207 57.3 232.8 54C258.7 50.7 284.3 41.3 310.2 40C336 38.7 362 45.3 387.8 49C413.7 52.7 439.3 53.3 465.2 51.5C491 49.7 517 45.3 542.8 44.5C568.7 43.7 594.3 46.3 620.2 48.7C646 51 672 53 697.8 53.5C723.7 54 749.3 53 775.2 49.2C801 45.3 827 38.7 852.8 35.8C878.7 33 904.3 34 917.2 34.5L930 35L930 0L917.2 0C904.3 0 878.7 0 852.8 0C827 0 801 0 775.2 0C749.3 0 723.7 0 697.8 0C672 0 646 0 620.2 0C594.3 0 568.7 0 542.8 0C517 0 491 0 465.2 0C439.3 0 413.7 0 387.8 0C362 0 336 0 310.2 0C284.3 0 258.7 0 232.8 0C207 0 181 0 155.2 0C129.3 0 103.7 0 77.8 0C52 0 26 0 13 0L0 0Z" fill="#4a4a4a"></path><path d="M0 36L13 35.5C26 35 52 34 77.8 34.8C103.7 35.7 129.3 38.3 155.2 39.7C181 41 207 41 232.8 39.7C258.7 38.3 284.3 35.7 310.2 35.3C336 35 362 37 387.8 37.3C413.7 37.7 439.3 36.3 465.2 33.3C491 30.3 517 25.7 542.8 26.5C568.7 27.3 594.3 33.7 620.2 33.3C646 33 672 26 697.8 25.7C723.7 25.3 749.3 31.7 775.2 33.7C801 35.7 827 33.3 852.8 34C878.7 34.7 904.3 38.3 917.2 40.2L930 42L930 0L917.2 0C904.3 0 878.7 0 852.8 0C827 0 801 0 775.2 0C749.3 0 723.7 0 697.8 0C672 0 646 0 620.2 0C594.3 0 568.7 0 542.8 0C517 0 491 0 465.2 0C439.3 0 413.7 0 387.8 0C362 0 336 0 310.2 0C284.3 0 258.7 0 232.8 0C207 0 181 0 155.2 0C129.3 0 103.7 0 77.8 0C52 0 26 0 13 0L0 0Z" fill="#2e2e2e"></path><path d="M0 16L13 18C26 20 52 24 77.8 24.7C103.7 25.3 129.3 22.7 155.2 20.7C181 18.7 207 17.3 232.8 17.3C258.7 17.3 284.3 18.7 310.2 19.5C336 20.3 362 20.7 387.8 21C413.7 21.3 439.3 21.7 465.2 22.7C491 23.7 517 25.3 542.8 26.2C568.7 27 594.3 27 620.2 25.5C646 24 672 21 697.8 20.5C723.7 20 749.3 22 775.2 23.2C801 24.3 827 24.7 852.8 24.3C878.7 24 904.3 23 917.2 22.5L930 22L930 0L917.2 0C904.3 0 878.7 0 852.8 0C827 0 801 0 775.2 0C749.3 0 723.7 0 697.8 0C672 0 646 0 620.2 0C594.3 0 568.7 0 542.8 0C517 0 491 0 465.2 0C439.3 0 413.7 0 387.8 0C362 0 336 0 310.2 0C284.3 0 258.7 0 232.8 0C207 0 181 0 155.2 0C129.3 0 103.7 0 77.8 0C52 0 26 0 13 0L0 0Z" fill="#141414"></path></svg>