<svg id="visual" viewBox="0 0 930 300" width="930" height="300" xmlns="http://www.w3.org/2000/svg" xmlns:xlink="http://www.w3.org/1999/xlink" version="1.1"><rect x="0" y="0" width="930" height="300" fill="#1e1e1e"></rect><path d="M0 176L13 182.7C26 189.3 52 202.7 77.8 201.2C103.7 199.7 129.3 183.3 155.2 182.2C181 181 207 195 232.8 200.5C258.7 206 284.3 203 310.2 194.7C336 186.3 362 172.7 387.8 175.7C413.7 178.7 439.3 198.3 465.2 201.5C491 204.7 517 191.3 542.8 190.2C568.7 189 594.3 200 620.2 197.3C646 194.7 672 178.3 697.8 180C723.7 181.7 749.3 201.3 775.2 210.3C801 219.3 827 217.7 852.8 207.2C878.7 196.7 904.3 177.3 917.2 167.7L930 158L930 301L917.2 301C904.3 301 878.7 301 852.8 301C827 301 801 301 775.2 301C749.3 301 723.7 301 697.8 301C672 301 646 301 620.2 301C594.3 301 568.7 301 542.8 301C517 301 491 301 465.2 301C439.3 301 413.7 301 387.8 301C362 301 336 301 310.2 301C284.3 301 258.7 301 232.8 301C207 301 181 301 155.2 301C129.3 301 103.7 301 77.8 301C52 301 26 301 13 301L0 301Z" fill="#1e1e1e"></path><path d="M0 186L13 187.8C26 189.7 52 193.3 77.8 192.5C103.7 191.7 129.3 186.3 155.2 182.2C181 178 207 175 232.8 181C258.7 187 284.3 202 310.2 207C336 212 362 207 387.8 200.8C413.7 194.7 439.3 187.3 465.2 187.5C491 187.7 517 195.3 542.8 194.7C568.7 194 594.3 185 620.2 184.5C646 184 672 192 697.8 198.2C723.7 204.3 749.3 208.7 775.2 210.7C801 212.7 827 212.3 852.8 209.2C878.7 206 904.3 200 917.2 197L930 194L930 301L917.2 301C904.3 301 878.7 301 852.8 301C827 301 801 301 775.2 301C749.3 301 723.7 301 697.8 301C672 301 646 301 620.2 301C594.3 301 568.7 301 542.8 301C517 301 491 301 465.2 301C439.3 301 413.7 301 387.8 301C362 301 336 301 310.2 301C284.3 301 258.7 301 232.8 301C207 301 181 301 155.2 301C129.3 301 103.7 301 77.8 301C52 301 26 301 13 301L0 301Z" fill="#393939"></path><path d="M0 188L13 190C26 192 52 196 77.8 196.8C103.7 197.7 129.3 195.3 155.2 196.7C181 198 207 203 232.8 203.7C258.7 204.3 284.3 200.7 310.2 201.3C336 202 362 207 387.8 214.2C413.7 221.3 439.3 230.7 465.2 229.8C491 229 517 218 542.8 215.5C568.7 213 594.3 219 620.2 219.8C646 220.7 672 216.3 697.8 213C723.7 209.7 749.3 207.3 775.2 208.3C801 209.3 827 213.7 852.8 212.3C878.7 211 904.3 204 917.2 200.5L930 197L930 301L917.2 301C904.3 301 878.7 301 852.8 301C827 301 801 301 775.2 301C749.3 301 723.7 301 697.8 301C672 301 646 301 620.2 301C594.3 301 568.7 301 542.8 301C517 301 491 301 465.2 301C439.3 301 413.7 301 387.8 301C362 301 336 301 310.2 301C284.3 301 258.7 301 232.8 301C207 301 181 301 155.2 301C129.3 301 103.7 301 77.8 301C52 301 26 301 13 301L0 301Z" fill="#565656"></path><path d="M0 210L13 215C26 220 52 230 77.8 234.3C103.7 238.7 129.3 237.3 155.2 235C181 232.7 207 229.3 232.8 230.2C258.7 231 284.3 236 310.2 237.8C336 239.7 362 238.3 387.8 234.5C413.7 230.7 439.3 224.3 465.2 224.2C491 224 517 230 542.8 230.2C568.7 230.3 594.3 224.7 620.2 226.5C646 228.3 672 237.7 697.8 236.7C723.7 235.7 749.3 224.3 775.2 224.2C801 224 827 235 852.8 239C878.7 243 904.3 240 917.2 238.5L930 237L930 301L917.2 301C904.3 301 878.7 301 852.8 301C827 301 801 301 775.2 301C749.3 301 723.7 301 697.8 301C672 301 646 301 620.2 301C594.3 301 568.7 301 542.8 301C517 301 491 301 465.2 301C439.3 301 413.7 301 387.8 301C362 301 336 301 310.2 301C284.3 301 258.7 301 232.8 301C207 301 181 301 155.2 301C129.3 301 103.7 301 77.8 301C52 301 26 301 13 301L0 301Z" fill="#757575"></path><path d="M0 247L13 246.8C26 246.7 52 246.3 77.8 248.5C103.7 250.7 129.3 255.3 155.2 256.8C181 258.3 207 256.7 232.8 254.5C258.7 252.3 284.3 249.7 310.2 247.7C336 245.7 362 244.3 387.8 245C413.7 245.7 439.3 248.3 465.2 244.7C491 241 517 231 542.8 227.2C568.7 223.3 594.3 225.7 620.2 229.8C646 234 672 240 697.8 241.2C723.7 242.3 749.3 238.7 775.2 236.7C801 234.7 827 234.3 852.8 232.5C878.7 230.7 904.3 227.3 917.2 225.7L930 224L930 301L917.2 301C904.3 301 878.7 301 852.8 301C827 301 801 301 775.2 301C749.3 301 723.7 301 697.8 301C672 301 646 301 620.2 301C594.3 301 568.7 301 542.8 301C517 301 491 301 465.2 301C439.3 301 413.7 301 387.8 301C362 301 336 301 310.2 301C284.3 301 258.7 301 232.8 301C207 301 181 301 155.2 301C129.3 301 103.7 301 77.8 301C52 301 26 301 13 301L0 301Z" fill="#959595"></path><path d="M0 262L13 260C26 258 52 254 77.8 254.2C103.7 254.3 129.3 258.7 155.2 261.5C181 264.3 207 265.7 232.8 262.3C258.7 259 284.3 251 310.2 248.5C336 246 362 249 387.8 251.3C413.7 253.7 439.3 255.3 465.2 257.7C491 260 517 263 542.8 261.5C568.7 260 594.3 254 620.2 250.7C646 247.3 672 246.7 697.8 249.3C723.7 252 749.3 258 775.2 261C801 264 827 264 852.8 263.3C878.7 262.7 904.3 261.3 917.2 260.7L930 260L930 301L917.2 301C904.3 301 878.7 301 852.8 301C827 301 801 301 775.2 301C749.3 301 723.7 301 697.8 301C672 301 646 301 620.2 301C594.3 301 568.7 301 542.8 301C517 301 491 301 465.2 301C439.3 301 413.7 301 387.8 301C362 301 336 301 310.2 301C284.3 301 258.7 301 232.8 301C207 301 181 301 155.2 301C129.3 301 103.7 301 77.8 301C52 301 26 301 13 301L0 301Z" fill="#b7b7b7"></path><path d="M0 267L13 266C26 265 52 263 77.8 261C103.7 259 129.3 257 155.2 255.7C181 254.3 207 253.7 232.8 256.8C258.7 260 284.3 267 310.2 269.8C336 272.7 362 271.3 387.8 268.3C413.7 265.3 439.3 260.7 465.2 258.2C491 255.7 517 255.3 542.8 255.2C568.7 255 594.3 255 620.2 258.5C646 262 672 269 697.8 270.7C723.7 272.3 749.3 268.7 775.2 265.7C801 262.7 827 260.3 852.8 260.7C878.7 261 904.3 264 917.2 265.5L930 267L930 301L917.2 301C904.3 301 878.7 301 852.8 301C827 301 801 301 775.2 301C749.3 301 723.7 301 697.8 301C672 301 646 301 620.2 301C594.3 301 568.7 301 542.8 301C517 301 491 301 465.2 301C439.3 301 413.7 301 387.8 301C362 301 336 301 310.2 301C284.3 301 258.7 301 232.8 301C207 301 181 301 155.2 301C129.3 301 103.7 301 77.8 301C52 301 26 301 13 301L0 301Z" fill="#dbdbdb"></path><path d="M0 278L13 277C26 276 52 274 77.8 274.8C103.7 275.7 129.3 279.3 155.2 279.5C181 279.7 207 276.3 232.8 275.7C258.7 275 284.3 277 310.2 278.3C336 279.7 362 280.3 387.8 281.7C413.7 283 439.3 285 465.2 284.3C491 283.7 517 280.3 542.8 280.3C568.7 280.3 594.3 283.7 620.2 282.7C646 281.7 672 276.3 697.8 275C723.7 273.7 749.3 276.3 775.2 278.2C801 280 827 281 852.8 280.7C878.7 280.3 904.3 278.7 917.2 277.8L930 277L930 301L917.2 301C904.3 301 878.7 301 852.8 301C827 301 801 301 775.2 301C749.3 301 723.7 301 697.8 301C672 301 646 301 620.2 301C594.3 301 568.7 301 542.8 301C517 301 491 301 465.2 301C439.3 301 413.7 301 387.8 301C362 301 336 301 310.2 301C284.3 301 258.7 301 232.8 301C207 301 181 301 155.2 301C129.3 301 103.7 301 77.8 301C52 301 26 301 13 301L0 301Z" fill="#ffffff"></path></svg>